<svg id="btn_Mute" data-name="btn Mute" xmlns="http://www.w3.org/2000/svg" width="32" height="32" viewBox="0 0 32 32">
  <circle id="Fondo_Circular_P" data-name="Fondo Circular P" cx="16" cy="16" r="16" fill="rgba(64,231,228,0)"/>
  <g id="Icono_Mute" data-name="Icono Mute" transform="translate(5.431 7.719)">
    <path id="path2478-5" d="M141.262,405.955h0a1.357,1.357,0,0,0-.609.168l-2.719,1.515,3.58,3.647,1.118-1.1-.034-3.047a1.238,1.238,0,0,0-1.207-1.184h-.129Zm-5.916,3.126-.581.324h-2.3a1.531,1.531,0,0,0-1.534,1.534V415.9a1.531,1.531,0,0,0,1.534,1.534h2.577l.141.075,4.3-4.217Zm6.131,6.245-3.651,3.584,2.986,1.588a1.368,1.368,0,0,0,1.289-.006,1.183,1.183,0,0,0,.635-1.045l-.032-2.871Z" transform="translate(-130.928 -405.031)" fill="#fff"/>
    <path id="circle63-3-5-0-9-2" d="M153.279,407.19l-1.663,1.633a8.883,8.883,0,0,1,.063,9.64l1.639,1.67a11.178,11.178,0,0,0-.039-12.943Z" transform="translate(-134.241 -405.228)" fill="#fff"/>
    <path id="path1922-0-7" d="M149.289,411.1l-1.728,1.7a4.3,4.3,0,0,1,.074,2.839l1.734,1.765a6.592,6.592,0,0,0-.08-6.3Z" transform="translate(-133.592 -405.854)" fill="#fff" fill-rule="evenodd"/>
    <g id="g2699" transform="translate(2.29)">
      <rect id="rect892-6" width="1.455" height="21.775" rx="0.728" transform="translate(0.134 1.019) rotate(-44.474)" fill="#fff"/>
      <rect id="rect894-2" width="1.455" height="21.775" rx="0.728" transform="translate(1.019 16.426) rotate(-134.474)" fill="#fff"/>
    </g>
  </g>
</svg>
