<svg id="Instagram" xmlns="http://www.w3.org/2000/svg" xmlns:xlink="http://www.w3.org/1999/xlink" width="45.592" height="45.592" viewBox="0 0 45.592 45.592">
  <defs>
    <linearGradient id="linear-gradient" x2="1" y2="1" gradientUnits="objectBoundingBox">
      <stop offset="0" stop-color="#673be2"/>
      <stop offset="0.079" stop-color="#3100ff"/>
      <stop offset="1" stop-color="#f0d"/>
    </linearGradient>
  </defs>
  <rect id="Fondo_Rectangular" data-name="Fondo Rectangular" width="45.592" height="45.592" rx="8.101" fill="url(#linear-gradient)"/>
  <g id="Icono_Instagram" data-name="Icono Instagram" transform="translate(7.588 7.579)">
    <path id="path1032" d="M30.945,15.742c0,2.133-.043,4.273.012,6.406a8.477,8.477,0,0,1-5.3,7.994,9.589,9.589,0,0,1-3.807.8c-4.126.006-8.258.061-12.383-.018A9.029,9.029,0,0,1,1.967,27,7.653,7.653,0,0,1,.545,22.455V9.275A8.249,8.249,0,0,1,5.394,1.551,9.318,9.318,0,0,1,9.734.539c4,0,8.012-.025,12.016.012a9.215,9.215,0,0,1,7.614,3.715,7.671,7.671,0,0,1,1.582,4.769Zm-28.138,0v6.743a5.269,5.269,0,0,0,.754,2.8,6.78,6.78,0,0,0,6,3.372c4.113.061,8.233.025,12.353.012a6.7,6.7,0,0,0,2.906-.644A6.131,6.131,0,0,0,28.683,22.1c-.025-4.353-.006-8.705-.006-13.058A5.532,5.532,0,0,0,27.6,5.689,6.853,6.853,0,0,0,21.909,2.82C17.8,2.771,13.695,2.8,9.587,2.807a7.237,7.237,0,0,0-2.544.484,6.28,6.28,0,0,0-4.254,6.1C2.862,11.512,2.807,13.627,2.807,15.742Z" transform="translate(-0.545 -0.531)" fill="#fff"/>
    <path id="path1034-9" d="M15.591,22.064a7.051,7.051,0,1,1,7.136-7.056A7.1,7.1,0,0,1,15.591,22.064Zm0-2.268a4.786,4.786,0,1,0-4.886-4.788A4.83,4.83,0,0,0,15.591,19.8Z" transform="translate(-0.357 -0.354)" fill="#fff"/>
    <path id="path1036" d="M23.238,5.868a1.565,1.565,0,1,1-1.5,1.576A1.54,1.54,0,0,1,23.238,5.868Z" transform="translate(-0.041 -0.404)" fill="#fff"/>
  </g>
</svg>
