<svg id="Twitter" xmlns="http://www.w3.org/2000/svg" width="45.592" height="45.592" viewBox="0 0 45.592 45.592">
  <rect id="Fondo_Rectangular" data-name="Fondo Rectangular" width="45.592" height="45.592" rx="8.101" fill="#1b95e0"/>
  <g id="Icono_Twitter" data-name="Icono Twitter" transform="translate(7.079 9.928)">
    <g id="XMLID_826_" transform="translate(0 0)">
      <path id="XMLID_827_" d="M30.72,5.753a11.915,11.915,0,0,1-1.52.554A6.72,6.72,0,0,0,30.568,3.9a.507.507,0,0,0-.742-.591,11.964,11.964,0,0,1-3.536,1.4A6.75,6.75,0,0,0,14.819,9.53a6.883,6.883,0,0,0,.055.872A17.275,17.275,0,0,1,3.018,4.112a.507.507,0,0,0-.831.065,6.757,6.757,0,0,0,.692,7.767,5.716,5.716,0,0,1-.9-.4.507.507,0,0,0-.753.432c0,.03,0,.06,0,.09a6.772,6.772,0,0,0,3.3,5.8c-.172-.017-.343-.042-.513-.075a.507.507,0,0,0-.578.653,6.745,6.745,0,0,0,4.943,4.523A11.937,11.937,0,0,1,2,24.787,12.207,12.207,0,0,1,.566,24.7a.507.507,0,0,0-.333.93,18.2,18.2,0,0,0,9.84,2.884A17.506,17.506,0,0,0,23.636,22.56a18.882,18.882,0,0,0,4.7-12.306c0-.185,0-.372-.009-.558a13.117,13.117,0,0,0,3.019-3.2.507.507,0,0,0-.627-.745Z" transform="translate(0 -2.783)" fill="#fff"/>
    </g>
  </g>
</svg>
